  0
SECTION
  2
HEADER
  9
$ACADVER
  1
AC1009
  9
$EXTMIN
  10
-0.864000
  20
-2.368000
  9
$EXTMAX
  10
3.520000
  20
2.624000
  0
ENDSEC
  0
SECTION
  2
TABLES
  0
ENDSEC
  0
SECTION
  2
BLOCKS
  0
ENDSEC
  0
SECTION
  2
ENTITIES
  0
LINE
  8
1
  6
CONTINUOUS
  62
7
  10
1.728000
  20
1.408000
  11
1.792000
  21
0.000000
  0
POLYLINE
  8
1
  6
CONTINUOUS
  10
0.0
  20
0.0
  30
0.0
  70
8
  66
1
  0
VERTEX
 8
0
 10
1.792000
 20
0.000000
 30
0.000000
  0
VERTEX
 8
0
 10
1.813313
 20
-0.003031
 30
0.000000
  0
VERTEX
 8
0
 10
1.834600
 20
-0.006128
 30
0.000000
  0
VERTEX
 8
0
 10
1.855836
 20
-0.009359
 30
0.000000
  0
VERTEX
 8
0
 10
1.876994
 20
-0.012789
 30
0.000000
  0
VERTEX
 8
0
 10
1.898051
 20
-0.016486
 30
0.000000
  0
VERTEX
 8
0
 10
1.918979
 20
-0.020517
 30
0.000000
  0
VERTEX
 8
0
 10
1.939753
 20
-0.024947
 30
0.000000
  0
VERTEX
 8
0
 10
1.960348
 20
-0.029844
 30
0.000000
  0
VERTEX
 8
0
 10
1.980738
 20
-0.035274
 30
0.000000
  0
VERTEX
 8
0
 10
2.000897
 20
-0.041304
 30
0.000000
  0
VERTEX
 8
0
 10
2.020800
 20
-0.048000
 30
0.000000
  0
VERTEX
 8
0
 10
2.041600
 20
-0.056000
 30
0.000000
  0
VERTEX
 8
0
 10
2.063587
 20
-0.065913
 30
0.000000
  0
VERTEX
 8
0
 10
2.085100
 20
-0.077061
 30
0.000000
  0
VERTEX
 8
0
 10
2.106205
 20
-0.089267
 30
0.000000
  0
VERTEX
 8
0
 10
2.126971
 20
-0.102355
 30
0.000000
  0
VERTEX
 8
0
 10
2.147466
 20
-0.116149
 30
0.000000
  0
VERTEX
 8
0
 10
2.167757
 20
-0.130472
 30
0.000000
  0
VERTEX
 8
0
 10
2.187912
 20
-0.145148
 30
0.000000
  0
VERTEX
 8
0
 10
2.208000
 20
-0.160000
 30
0.000000
  0
SEQEND
  0
LINE
  8
1
  6
CONTINUOUS
  62
7
  10
2.208000
  20
-0.160000
  11
2.432000
  21
-0.160000
  0
LINE
  8
1
  6
CONTINUOUS
  62
7
  10
2.432000
  20
-0.160000
  11
2.432000
  21
1.920000
  0
POLYLINE
  8
1
  6
CONTINUOUS
  10
0.0
  20
0.0
  30
0.0
  70
8
  66
1
  0
VERTEX
 8
0
 10
2.432000
 20
1.920000
 30
0.000000
  0
VERTEX
 8
0
 10
2.401265
 20
1.924902
 30
0.000000
  0
VERTEX
 8
0
 10
2.370722
 20
1.929995
 30
0.000000
  0
VERTEX
 8
0
 10
2.340562
 20
1.935471
 30
0.000000
  0
VERTEX
 8
0
 10
2.310975
 20
1.941520
 30
0.000000
  0
VERTEX
 8
0
 10
2.282153
 20
1.948335
 30
0.000000
  0
VERTEX
 8
0
 10
2.254287
 20
1.956106
 30
0.000000
  0
VERTEX
 8
0
 10
2.227570
 20
1.965024
 30
0.000000
  0
VERTEX
 8
0
 10
2.202191
 20
1.975282
 30
0.000000
  0
VERTEX
 8
0
 10
2.178342
 20
1.987069
 30
0.000000
  0
VERTEX
 8
0
 10
2.156215
 20
2.000578
 30
0.000000
  0
VERTEX
 8
0
 10
2.136000
 20
2.016000
 30
0.000000
  0
VERTEX
 8
0
 10
2.120000
 20
2.032000
 30
0.000000
  0
VERTEX
 8
0
 10
2.110141
 20
2.049141
 30
0.000000
  0
VERTEX
 8
0
 10
2.103826
 20
2.069826
 30
0.000000
  0
VERTEX
 8
0
 10
2.100548
 20
2.093548
 30
0.000000
  0
VERTEX
 8
0
 10
2.099801
 20
2.119801
 30
0.000000
  0
VERTEX
 8
0
 10
2.101079
 20
2.148079
 30
0.000000
  0
VERTEX
 8
0
 10
2.103876
 20
2.177876
 30
0.000000
  0
VERTEX
 8
0
 10
2.107685
 20
2.208685
 30
0.000000
  0
VERTEX
 8
0
 10
2.112000
 20
2.240000
 30
0.000000
  0
SEQEND
  0
LINE
  8
1
  6
CONTINUOUS
  62
7
  10
2.112000
  20
2.240000
  11
1.664000
  21
2.112000
  0
POLYLINE
  8
1
  6
CONTINUOUS
  10
0.0
  20
0.0
  30
0.0
  70
8
  66
1
  0
VERTEX
 8
0
 10
1.664000
 20
2.112000
 30
0.000000
  0
VERTEX
 8
0
 10
1.682386
 20
2.069916
 30
0.000000
  0
VERTEX
 8
0
 10
1.700558
 20
2.027813
 30
0.000000
  0
VERTEX
 8
0
 10
1.718303
 20
1.985670
 30
0.000000
  0
VERTEX
 8
0
 10
1.735406
 20
1.943470
 30
0.000000
  0
VERTEX
 8
0
 10
1.751653
 20
1.901192
 30
0.000000
  0
VERTEX
 8
0
 10
1.766832
 20
1.858816
 30
0.000000
  0
VERTEX
 8
0
 10
1.780727
 20
1.816324
 30
0.000000
  0
VERTEX
 8
0
 10
1.793125
 20
1.773696
 30
0.000000
  0
VERTEX
 8
0
 10
1.803813
 20
1.730912
 30
0.000000
  0
VERTEX
 8
0
 10
1.812576
 20
1.687953
 30
0.000000
  0
VERTEX
 8
0
 10
1.819200
 20
1.644800
 30
0.000000
  0
VERTEX
 8
0
 10
1.822400
 20
1.609600
 30
0.000000
  0
VERTEX
 8
0
 10
1.820505
 20
1.585300
 30
0.000000
  0
VERTEX
 8
0
 10
1.814647
 20
1.560641
 30
0.000000
  0
VERTEX
 8
0
 10
1.805394
 20
1.535672
 30
0.000000
  0
VERTEX
 8
0
 10
1.793311
 20
1.510446
 30
0.000000
  0
VERTEX
 8
0
 10
1.778964
 20
1.485015
 30
0.000000
  0
VERTEX
 8
0
 10
1.762919
 20
1.459429
 30
0.000000
  0
VERTEX
 8
0
 10
1.745743
 20
1.433740
 30
0.000000
  0
VERTEX
 8
0
 10
1.728000
 20
1.408000
 30
0.000000
  0
SEQEND
  0
LINE
  8
2
  6
CONTINUOUS
  62
7
  10
2.752000
  20
1.920000
  11
2.752000
  21
-0.160000
  0
LINE
  8
2
  6
CONTINUOUS
  62
7
  10
2.752000
  20
-0.160000
  11
2.976000
  21
-0.160000
  0
POLYLINE
  8
2
  6
CONTINUOUS
  10
0.0
  20
0.0
  30
0.0
  70
8
  66
1
  0
VERTEX
 8
0
 10
2.976000
 20
-0.160000
 30
0.000000
  0
VERTEX
 8
0
 10
2.996287
 20
-0.147031
 30
0.000000
  0
VERTEX
 8
0
 10
3.016600
 20
-0.134128
 30
0.000000
  0
VERTEX
 8
0
 10
3.036964
 20
-0.121359
 30
0.000000
  0
VERTEX
 8
0
 10
3.057406
 20
-0.108789
 30
0.000000
  0
VERTEX
 8
0
 10
3.077949
 20
-0.096486
 30
0.000000
  0
VERTEX
 8
0
 10
3.098621
 20
-0.084517
 30
0.000000
  0
VERTEX
 8
0
 10
3.119447
 20
-0.072947
 30
0.000000
  0
VERTEX
 8
0
 10
3.140452
 20
-0.061844
 30
0.000000
  0
VERTEX
 8
0
 10
3.161662
 20
-0.051274
 30
0.000000
  0
VERTEX
 8
0
 10
3.183103
 20
-0.041304
 30
0.000000
  0
VERTEX
 8
0
 10
3.204800
 20
-0.032000
 30
0.000000
  0
VERTEX
 8
0
 10
3.225600
 20
-0.024000
 30
0.000000
  0
VERTEX
 8
0
 10
3.245213
 20
-0.017913
 30
0.000000
  0
VERTEX
 8
0
 10
3.265300
 20
-0.013061
 30
0.000000
  0
VERTEX
 8
0
 10
3.285795
 20
-0.009267
 30
0.000000
  0
VERTEX
 8
0
 10
3.306629
 20
-0.006355
 30
0.000000
  0
VERTEX
 8
0
 10
3.327734
 20
-0.004149
 30
0.000000
  0
VERTEX
 8
0
 10
3.349043
 20
-0.002472
 30
0.000000
  0
VERTEX
 8
0
 10
3.370488
 20
-0.001148
 30
0.000000
  0
VERTEX
 8
0
 10
3.392000
 20
0.000000
 30
0.000000
  0
SEQEND
  0
LINE
  8
2
  6
CONTINUOUS
  62
7
  10
3.392000
  20
0.000000
  11
3.456000
  21
1.408000
  0
POLYLINE
  8
2
  6
CONTINUOUS
  10
0.0
  20
0.0
  30
0.0
  70
8
  66
1
  0
VERTEX
 8
0
 10
3.456000
 20
1.408000
 30
0.000000
  0
VERTEX
 8
0
 10
3.435349
 20
1.432381
 30
0.000000
  0
VERTEX
 8
0
 10
3.415537
 20
1.456686
 30
0.000000
  0
VERTEX
 8
0
 10
3.397402
 20
1.480839
 30
0.000000
  0
VERTEX
 8
0
 10
3.381783
 20
1.504763
 30
0.000000
  0
VERTEX
 8
0
 10
3.369517
 20
1.528382
 30
0.000000
  0
VERTEX
 8
0
 10
3.361443
 20
1.551619
 30
0.000000
  0
VERTEX
 8
0
 10
3.358400
 20
1.574400
 30
0.000000
  0
VERTEX
 8
0
 10
3.361600
 20
1.609600
 30
0.000000
  0
VERTEX
 8
0
 10
3.368038
 20
1.652081
 30
0.000000
  0
VERTEX
 8
0
 10
3.376240
 20
1.694402
 30
0.000000
  0
VERTEX
 8
0
 10
3.386046
 20
1.736578
 30
0.000000
  0
VERTEX
 8
0
 10
3.397295
 20
1.778622
 30
0.000000
  0
VERTEX
 8
0
 10
3.409827
 20
1.820549
 30
0.000000
  0
VERTEX
 8
0
 10
3.423481
 20
1.862374
 30
0.000000
  0
VERTEX
 8
0
 10
3.438098
 20
1.904112
 30
0.000000
  0
VERTEX
 8
0
 10
3.453516
 20
1.945777
 30
0.000000
  0
VERTEX
 8
0
 10
3.469576
 20
1.987384
 30
0.000000
  0
VERTEX
 8
0
 10
3.486117
 20
2.028947
 30
0.000000
  0
VERTEX
 8
0
 10
3.502978
 20
2.070481
 30
0.000000
  0
VERTEX
 8
0
 10
3.520000
 20
2.112000
 30
0.000000
  0
SEQEND
  0
LINE
  8
2
  6
CONTINUOUS
  62
7
  10
3.520000
  20
2.112000
  11
3.072000
  21
2.240000
  0
POLYLINE
  8
2
  6
CONTINUOUS
  10
0.0
  20
0.0
  30
0.0
  70
8
  66
1
  0
VERTEX
 8
0
 10
3.072000
 20
2.240000
 30
0.000000
  0
VERTEX
 8
0
 10
3.070735
 20
2.212902
 30
0.000000
  0
VERTEX
 8
0
 10
3.069278
 20
2.185995
 30
0.000000
  0
VERTEX
 8
0
 10
3.067438
 20
2.159471
 30
0.000000
  0
VERTEX
 8
0
 10
3.065025
 20
2.133520
 30
0.000000
  0
VERTEX
 8
0
 10
3.061847
 20
2.108335
 30
0.000000
  0
VERTEX
 8
0
 10
3.057713
 20
2.084106
 30
0.000000
  0
VERTEX
 8
0
 10
3.052430
 20
2.061024
 30
0.000000
  0
VERTEX
 8
0
 10
3.045809
 20
2.039282
 30
0.000000
  0
VERTEX
 8
0
 10
3.037658
 20
2.019069
 30
0.000000
  0
VERTEX
 8
0
 10
3.027785
 20
2.000578
 30
0.000000
  0
VERTEX
 8
0
 10
3.016000
 20
1.984000
 30
0.000000
  0
VERTEX
 8
0
 10
3.000000
 20
1.968000
 30
0.000000
  0
VERTEX
 8
0
 10
2.977859
 20
1.953141
 30
0.000000
  0
VERTEX
 8
0
 10
2.952174
 20
1.941826
 30
0.000000
  0
VERTEX
 8
0
 10
2.923452
 20
1.933548
 30
0.000000
  0
VERTEX
 8
0
 10
2.892199
 20
1.927801
 30
0.000000
  0
VERTEX
 8
0
 10
2.858921
 20
1.924079
 30
0.000000
  0
VERTEX
 8
0
 10
2.824124
 20
1.921876
 30
0.000000
  0
VERTEX
 8
0
 10
2.788315
 20
1.920685
 30
0.000000
  0
VERTEX
 8
0
 10
2.752000
 20
1.920000
 30
0.000000
  0
SEQEND
  0
LINE
  8
3
  6
CONTINUOUS
  62
7
  10
-0.864000
  20
1.184000
  11
-0.800000
  21
0.096000
  0
POLYLINE
  8
3
  6
CONTINUOUS
  10
0.0
  20
0.0
  30
0.0
  70
8
  66
1
  0
VERTEX
 8
0
 10
-0.800000
 20
0.096000
 30
0.000000
  0
VERTEX
 8
0
 10
-0.771065
 20
0.093535
 30
0.000000
  0
VERTEX
 8
0
 10
-0.742253
 20
0.090917
 30
0.000000
  0
VERTEX
 8
0
 10
-0.713688
 20
0.087990
 30
0.000000
  0
VERTEX
 8
0
 10
-0.685492
 20
0.084602
 30
0.000000
  0
VERTEX
 8
0
 10
-0.657789
 20
0.080598
 30
0.000000
  0
VERTEX
 8
0
 10
-0.630701
 20
0.075824
 30
0.000000
  0
VERTEX
 8
0
 10
-0.604352
 20
0.070127
 30
0.000000
  0
VERTEX
 8
0
 10
-0.578865
 20
0.063352
 30
0.000000
  0
VERTEX
 8
0
 10
-0.554363
 20
0.055346
 30
0.000000
  0
VERTEX
 8
0
 10
-0.530970
 20
0.045955
 30
0.000000
  0
VERTEX
 8
0
 10
-0.508808
 20
0.035024
 30
0.000000
  0
VERTEX
 8
0
 10
-0.488000
 20
0.022400
 30
0.000000
  0
VERTEX
 8
0
 10
-0.472000
 20
0.009600
 30
0.000000
  0
VERTEX
 8
0
 10
-0.464773
 20
-0.004166
 30
0.000000
  0
VERTEX
 8
0
 10
-0.461409
 20
-0.022761
 30
0.000000
  0
VERTEX
 8
0
 10
-0.461264
 20
-0.045380
 30
0.000000
  0
VERTEX
 8
0
 10
-0.463694
 20
-0.071218
 30
0.000000
  0
VERTEX
 8
0
 10
-0.468057
 20
-0.099471
 30
0.000000
  0
VERTEX
 8
0
 10
-0.473706
 20
-0.129333
 30
0.000000
  0
VERTEX
 8
0
 10
-0.480000
 20
-0.160000
 30
0.000000
  0
SEQEND
  0
LINE
  8
3
  6
CONTINUOUS
  62
7
  10
-0.480000
  20
-0.160000
  11
0.480000
  21
-0.160000
  0
POLYLINE
  8
3
  6
CONTINUOUS
  10
0.0
  20
0.0
  30
0.0
  70
8
  66
1
  0
VERTEX
 8
0
 10
0.480000
 20
-0.160000
 30
0.000000
  0
VERTEX
 8
0
 10
0.483065
 20
-0.136865
 30
0.000000
  0
VERTEX
 8
0
 10
0.486253
 20
-0.113883
 30
0.000000
  0
VERTEX
 8
0
 10
0.489688
 20
-0.091210
 30
0.000000
  0
VERTEX
 8
0
 10
0.493492
 20
-0.068998
 30
0.000000
  0
VERTEX
 8
0
 10
0.497789
 20
-0.047402
 30
0.000000
  0
VERTEX
 8
0
 10
0.502701
 20
-0.026576
 30
0.000000
  0
VERTEX
 8
0
 10
0.508352
 20
-0.006673
 30
0.000000
  0
VERTEX
 8
0
 10
0.514865
 20
0.012152
 30
0.000000
  0
VERTEX
 8
0
 10
0.522363
 20
0.029746
 30
0.000000
  0
VERTEX
 8
0
 10
0.530970
 20
0.045955
 30
0.000000
  0
VERTEX
 8
0
 10
0.540808
 20
0.060624
 30
0.000000
  0
VERTEX
 8
0
 10
0.552000
 20
0.073600
 30
0.000000
  0
VERTEX
 8
0
 10
0.568000
 20
0.086400
 30
0.000000
  0
VERTEX
 8
0
 10
0.592773
 20
0.098234
 30
0.000000
  0
VERTEX
 8
0
 10
0.621409
 20
0.105239
 30
0.000000
  0
VERTEX
 8
0
 10
0.653264
 20
0.108220
 30
0.000000
  0
VERTEX
 8
0
 10
0.687694
 20
0.107982
 30
0.000000
  0
VERTEX
 8
0
 10
0.724057
 20
0.105329
 30
0.000000
  0
VERTEX
 8
0
 10
0.761706
 20
0.101067
 30
0.000000
  0
VERTEX
 8
0
 10
0.800000
 20
0.096000
 30
0.000000
  0
SEQEND
  0
LINE
  8
3
  6
CONTINUOUS
  62
7
  10
0.800000
  20
0.096000
  11
0.864000
  21
1.184000
  0
POLYLINE
  8
3
  6
CONTINUOUS
  10
0.0
  20
0.0
  30
0.0
  70
8
  66
1
  0
VERTEX
 8
0
 10
0.864000
 20
1.184000
 30
0.000000
  0
VERTEX
 8
0
 10
0.845020
 20
1.204986
 30
0.000000
  0
VERTEX
 8
0
 10
0.826284
 20
1.225999
 30
0.000000
  0
VERTEX
 8
0
 10
0.808036
 20
1.247067
 30
0.000000
  0
VERTEX
 8
0
 10
0.790517
 20
1.268215
 30
0.000000
  0
VERTEX
 8
0
 10
0.773973
 20
1.289472
 30
0.000000
  0
VERTEX
 8
0
 10
0.758646
 20
1.310864
 30
0.000000
  0
VERTEX
 8
0
 10
0.744781
 20
1.332418
 30
0.000000
  0
VERTEX
 8
0
 10
0.732620
 20
1.354162
 30
0.000000
  0
VERTEX
 8
0
 10
0.722407
 20
1.376122
 30
0.000000
  0
VERTEX
 8
0
 10
0.714386
 20
1.398326
 30
0.000000
  0
VERTEX
 8
0
 10
0.708800
 20
1.420800
 30
0.000000
  0
VERTEX
 8
0
 10
0.705600
 20
1.449600
 30
0.000000
  0
VERTEX
 8
0
 10
0.706121
 20
1.487147
 30
0.000000
  0
VERTEX
 8
0
 10
0.711154
 20
1.525195
 30
0.000000
  0
VERTEX
 8
0
 10
0.720054
 20
1.563673
 30
0.000000
  0
VERTEX
 8
0
 10
0.732176
 20
1.602508
 30
0.000000
  0
VERTEX
 8
0
 10
0.746876
 20
1.641631
 30
0.000000
  0
VERTEX
 8
0
 10
0.763510
 20
1.680968
 30
0.000000
  0
VERTEX
 8
0
 10
0.781433
 20
1.720448
 30
0.000000
  0
VERTEX
 8
0
 10
0.800000
 20
1.760000
 30
0.000000
  0
SEQEND
  0
LINE
  8
3
  6
CONTINUOUS
  62
7
  10
0.800000
  20
1.760000
  11
-0.800000
  21
1.760000
  0
POLYLINE
  8
3
  6
CONTINUOUS
  10
0.0
  20
0.0
  30
0.0
  70
8
  66
1
  0
VERTEX
 8
0
 10
-0.800000
 20
1.760000
 30
0.000000
  0
VERTEX
 8
0
 10
-0.787420
 20
1.723386
 30
0.000000
  0
VERTEX
 8
0
 10
-0.775084
 20
1.686799
 30
0.000000
  0
VERTEX
 8
0
 10
-0.763236
 20
1.650267
 30
0.000000
  0
VERTEX
 8
0
 10
-0.752117
 20
1.613815
 30
0.000000
  0
VERTEX
 8
0
 10
-0.741973
 20
1.577472
 30
0.000000
  0
VERTEX
 8
0
 10
-0.733046
 20
1.541264
 30
0.000000
  0
VERTEX
 8
0
 10
-0.725581
 20
1.505218
 30
0.000000
  0
VERTEX
 8
0
 10
-0.719820
 20
1.469362
 30
0.000000
  0
VERTEX
 8
0
 10
-0.716007
 20
1.433722
 30
0.000000
  0
VERTEX
 8
0
 10
-0.714386
 20
1.398326
 30
0.000000
  0
VERTEX
 8
0
 10
-0.715200
 20
1.363200
 30
0.000000
  0
VERTEX
 8
0
 10
-0.718400
 20
1.334400
 30
0.000000
  0
VERTEX
 8
0
 10
-0.725321
 20
1.314347
 30
0.000000
  0
VERTEX
 8
0
 10
-0.736754
 20
1.294795
 30
0.000000
  0
VERTEX
 8
0
 10
-0.752054
 20
1.275673
 30
0.000000
  0
VERTEX
 8
0
 10
-0.770576
 20
1.256908
 30
0.000000
  0
VERTEX
 8
0
 10
-0.791676
 20
1.238431
 30
0.000000
  0
VERTEX
 8
0
 10
-0.814710
 20
1.220168
 30
0.000000
  0
VERTEX
 8
0
 10
-0.839033
 20
1.202048
 30
0.000000
  0
VERTEX
 8
0
 10
-0.864000
 20
1.184000
 30
0.000000
  0
SEQEND
  0
LINE
  8
4
  6
CONTINUOUS
  62
7
  10
0.640000
  20
-1.088000
  11
0.640000
  21
-2.112000
  0
LINE
  8
4
  6
CONTINUOUS
  62
7
  10
-0.480000
  20
-0.896000
  11
0.640000
  21
-1.088000
  0
LINE
  8
4
  6
CONTINUOUS
  62
7
  10
-0.672000
  20
-1.312000
  11
-0.480000
  21
-0.896000
  0
POLYLINE
  8
4
  6
CONTINUOUS
  10
0.0
  20
0.0
  30
0.0
  70
8
  66
1
  0
VERTEX
 8
0
 10
-0.672000
 20
-2.016000
 30
0.000000
  0
VERTEX
 8
0
 10
-0.687500
 20
-1.991709
 30
0.000000
  0
VERTEX
 8
0
 10
-0.702770
 20
-1.967418
 30
0.000000
  0
VERTEX
 8
0
 10
-0.717581
 20
-1.943127
 30
0.000000
  0
VERTEX
 8
0
 10
-0.731703
 20
-1.918836
 30
0.000000
  0
VERTEX
 8
0
 10
-0.744908
 20
-1.894545
 30
0.000000
  0
VERTEX
 8
0
 10
-0.756964
 20
-1.870255
 30
0.000000
  0
VERTEX
 8
0
 10
-0.767644
 20
-1.845964
 30
0.000000
  0
VERTEX
 8
0
 10
-0.776717
 20
-1.821673
 30
0.000000
  0
VERTEX
 8
0
 10
-0.783953
 20
-1.797382
 30
0.000000
  0
VERTEX
 8
0
 10
-0.789124
 20
-1.773091
 30
0.000000
  0
VERTEX
 8
0
 10
-0.792000
 20
-1.748800
 30
0.000000
  0
VERTEX
 8
0
 10
-0.792000
 20
-1.713600
 30
0.000000
  0
VERTEX
 8
0
 10
-0.787631
 20
-1.663400
 30
0.000000
  0
VERTEX
 8
0
 10
-0.779009
 20
-1.613200
 30
0.000000
  0
VERTEX
 8
0
 10
-0.766743
 20
-1.563000
 30
0.000000
  0
VERTEX
 8
0
 10
-0.751439
 20
-1.512800
 30
0.000000
  0
VERTEX
 8
0
 10
-0.733705
 20
-1.462600
 30
0.000000
  0
VERTEX
 8
0
 10
-0.714149
 20
-1.412400
 30
0.000000
  0
VERTEX
 8
0
 10
-0.693378
 20
-1.362200
 30
0.000000
  0
VERTEX
 8
0
 10
-0.672000
 20
-1.312000
 30
0.000000
  0
SEQEND
  0
POLYLINE
  8
4
  6
CONTINUOUS
  10
0.0
  20
0.0
  30
0.0
  70
8
  66
1
  0
VERTEX
 8
0
 10
-0.480000
 20
-2.368000
 30
0.000000
  0
VERTEX
 8
0
 10
-0.487119
 20
-2.348289
 30
0.000000
  0
VERTEX
 8
0
 10
-0.494272
 20
-2.328597
 30
0.000000
  0
VERTEX
 8
0
 10
-0.501494
 20
-2.308942
 30
0.000000
  0
VERTEX
 8
0
 10
-0.508818
 20
-2.289343
 30
0.000000
  0
VERTEX
 8
0
 10
-0.516278
 20
-2.269819
 30
0.000000
  0
VERTEX
 8
0
 10
-0.523910
 20
-2.250387
 30
0.000000
  0
VERTEX
 8
0
 10
-0.531746
 20
-2.231068
 30
0.000000
  0
VERTEX
 8
0
 10
-0.539822
 20
-2.211879
 30
0.000000
  0
VERTEX
 8
0
 10
-0.548171
 20
-2.192839
 30
0.000000
  0
VERTEX
 8
0
 10
-0.556828
 20
-2.173967
 30
0.000000
  0
VERTEX
 8
0
 10
-0.565826
 20
-2.155281
 30
0.000000
  0
VERTEX
 8
0
 10
-0.575200
 20
-2.136800
 30
0.000000
  0
VERTEX
 8
0
 10
-0.584800
 20
-2.119200
 30
0.000000
  0
VERTEX
 8
0
 10
-0.594935
 20
-2.103190
 30
0.000000
  0
VERTEX
 8
0
 10
-0.606141
 20
-2.087765
 30
0.000000
  0
VERTEX
 8
0
 10
-0.618241
 20
-2.072828
 30
0.000000
  0
VERTEX
 8
0
 10
-0.631056
 20
-2.058280
 30
0.000000
  0
VERTEX
 8
0
 10
-0.644406
 20
-2.044024
 30
0.000000
  0
VERTEX
 8
0
 10
-0.658114
 20
-2.029963
 30
0.000000
  0
VERTEX
 8
0
 10
-0.672000
 20
-2.016000
 30
0.000000
  0
SEQEND
  0
LINE
  8
4
  6
CONTINUOUS
  62
7
  10
0.640000
  20
-2.112000
  11
-0.480000
  21
-2.368000
  0
LINE
  8
5
  6
CONTINUOUS
  62
7
  10
1.920000
  20
-1.088000
  11
1.920000
  21
-2.112000
  0
LINE
  8
5
  6
CONTINUOUS
  62
7
  10
1.920000
  20
-2.112000
  11
3.040000
  21
-2.368000
  0
POLYLINE
  8
5
  6
CONTINUOUS
  10
0.0
  20
0.0
  30
0.0
  70
8
  66
1
  0
VERTEX
 8
0
 10
3.040000
 20
-2.368000
 30
0.000000
  0
VERTEX
 8
0
 10
3.046871
 20
-2.348085
 30
0.000000
  0
VERTEX
 8
0
 10
3.053787
 20
-2.328194
 30
0.000000
  0
VERTEX
 8
0
 10
3.060794
 20
-2.308354
 30
0.000000
  0
VERTEX
 8
0
 10
3.067938
 20
-2.288588
 30
0.000000
  0
VERTEX
 8
0
 10
3.075264
 20
-2.268921
 30
0.000000
  0
VERTEX
 8
0
 10
3.082818
 20
-2.249378
 30
0.000000
  0
VERTEX
 8
0
 10
3.090645
 20
-2.229985
 30
0.000000
  0
VERTEX
 8
0
 10
3.098792
 20
-2.210766
 30
0.000000
  0
VERTEX
 8
0
 10
3.107303
 20
-2.191745
 30
0.000000
  0
VERTEX
 8
0
 10
3.116223
 20
-2.172948
 30
0.000000
  0
VERTEX
 8
0
 10
3.125600
 20
-2.154400
 30
0.000000
  0
VERTEX
 8
0
 10
3.135200
 20
-2.136800
 30
0.000000
  0
VERTEX
 8
0
 10
3.145190
 20
-2.120549
 30
0.000000
  0
VERTEX
 8
0
 10
3.156023
 20
-2.104758
 30
0.000000
  0
VERTEX
 8
0
 10
3.167581
 20
-2.089362
 30
0.000000
  0
VERTEX
 8
0
 10
3.179741
 20
-2.074295
 30
0.000000
  0
VERTEX
 8
0
 10
3.192384
 20
-2.059491
 30
0.000000
  0
VERTEX
 8
0
 10
3.205388
 20
-2.044884
 30
0.000000
  0
VERTEX
 8
0
 10
3.218634
 20
-2.030409
 30
0.000000
  0
VERTEX
 8
0
 10
3.232000
 20
-2.016000
 30
0.000000
  0
SEQEND
  0
POLYLINE
  8
5
  6
CONTINUOUS
  10
0.0
  20
0.0
  30
0.0
  70
8
  66
1
  0
VERTEX
 8
0
 10
3.232000
 20
-2.016000
 30
0.000000
  0
VERTEX
 8
0
 10
3.247500
 20
-1.991709
 30
0.000000
  0
VERTEX
 8
0
 10
3.262770
 20
-1.967418
 30
0.000000
  0
VERTEX
 8
0
 10
3.277581
 20
-1.943127
 30
0.000000
  0
VERTEX
 8
0
 10
3.291703
 20
-1.918836
 30
0.000000
  0
VERTEX
 8
0
 10
3.304908
 20
-1.894545
 30
0.000000
  0
VERTEX
 8
0
 10
3.316964
 20
-1.870255
 30
0.000000
  0
VERTEX
 8
0
 10
3.327644
 20
-1.845964
 30
0.000000
  0
VERTEX
 8
0
 10
3.336717
 20
-1.821673
 30
0.000000
  0
VERTEX
 8
0
 10
3.343953
 20
-1.797382
 30
0.000000
  0
VERTEX
 8
0
 10
3.349124
 20
-1.773091
 30
0.000000
  0
VERTEX
 8
0
 10
3.352000
 20
-1.748800
 30
0.000000
  0
VERTEX
 8
0
 10
3.352000
 20
-1.713600
 30
0.000000
  0
VERTEX
 8
0
 10
3.347631
 20
-1.663400
 30
0.000000
  0
VERTEX
 8
0
 10
3.339009
 20
-1.613200
 30
0.000000
  0
VERTEX
 8
0
 10
3.326743
 20
-1.563000
 30
0.000000
  0
VERTEX
 8
0
 10
3.311439
 20
-1.512800
 30
0.000000
  0
VERTEX
 8
0
 10
3.293705
 20
-1.462600
 30
0.000000
  0
VERTEX
 8
0
 10
3.274149
 20
-1.412400
 30
0.000000
  0
VERTEX
 8
0
 10
3.253378
 20
-1.362200
 30
0.000000
  0
VERTEX
 8
0
 10
3.232000
 20
-1.312000
 30
0.000000
  0
SEQEND
  0
LINE
  8
5
  6
CONTINUOUS
  62
7
  10
3.232000
  20
-1.312000
  11
3.040000
  21
-0.896000
  0
LINE
  8
5
  6
CONTINUOUS
  62
7
  10
3.040000
  20
-0.896000
  11
1.920000
  21
-1.088000
  0
LINE
  8
6
  6
CONTINUOUS
  62
7
  10
-0.851200
  20
2.432000
  11
-0.800000
  21
1.920000
  0
LINE
  8
6
  6
CONTINUOUS
  62
7
  10
-0.800000
  20
1.920000
  11
0.800000
  21
1.920000
  0
LINE
  8
6
  6
CONTINUOUS
  62
7
  10
0.800000
  20
1.920000
  11
0.851200
  21
2.432000
  0
LINE
  8
6
  6
CONTINUOUS
  62
7
  10
0.851200
  20
2.432000
  11
0.288000
  21
2.624000
  0
POLYLINE
  8
6
  6
CONTINUOUS
  10
0.0
  20
0.0
  30
0.0
  70
8
  66
1
  0
VERTEX
 8
0
 10
0.288000
 20
2.624000
 30
0.000000
  0
VERTEX
 8
0
 10
0.263564
 20
2.605917
 30
0.000000
  0
VERTEX
 8
0
 10
0.239127
 20
2.588102
 30
0.000000
  0
VERTEX
 8
0
 10
0.214691
 20
2.570822
 30
0.000000
  0
VERTEX
 8
0
 10
0.190255
 20
2.554346
 30
0.000000
  0
VERTEX
 8
0
 10
0.165818
 20
2.538941
 30
0.000000
  0
VERTEX
 8
0
 10
0.141382
 20
2.524875
 30
0.000000
  0
VERTEX
 8
0
 10
0.116945
 20
2.512416
 30
0.000000
  0
VERTEX
 8
0
 10
0.092509
 20
2.501831
 30
0.000000
  0
VERTEX
 8
0
 10
0.068073
 20
2.493388
 30
0.000000
  0
VERTEX
 8
0
 10
0.043636
 20
2.487355
 30
0.000000
  0
VERTEX
 8
0
 10
0.019200
 20
2.484000
 30
0.000000
  0
VERTEX
 8
0
 10
-0.009600
 20
2.484000
 30
0.000000
  0
VERTEX
 8
0
 10
-0.044400
 20
2.489098
 30
0.000000
  0
VERTEX
 8
0
 10
-0.079200
 20
2.499156
 30
0.000000
  0
VERTEX
 8
0
 10
-0.114000
 20
2.513467
 30
0.000000
  0
VERTEX
 8
0
 10
-0.148800
 20
2.531321
 30
0.000000
  0
VERTEX
 8
0
 10
-0.183600
 20
2.552010
 30
0.000000
  0
VERTEX
 8
0
 10
-0.218400
 20
2.574826
 30
0.000000
  0
VERTEX
 8
0
 10
-0.253200
 20
2.599059
 30
0.000000
  0
VERTEX
 8
0
 10
-0.288000
 20
2.624000
 30
0.000000
  0
SEQEND
  0
LINE
  8
6
  6
CONTINUOUS
  62
7
  10
-0.288000
  20
2.624000
  11
-0.851200
  21
2.432000
  0
LINE
  8
7
  6
CONTINUOUS
  62
7
  10
1.632000
  20
-1.286400
  11
1.632000
  21
-1.920000
  0
LINE
  8
7
  6
CONTINUOUS
  62
7
  10
1.632000
  20
-1.920000
  11
1.708800
  21
-2.112000
  0
LINE
  8
7
  6
CONTINUOUS
  62
7
  10
1.708800
  20
-2.112000
  11
1.862400
  21
-2.112000
  0
LINE
  8
7
  6
CONTINUOUS
  62
7
  10
1.862400
  20
-2.112000
  11
1.862400
  21
-1.094400
  0
LINE
  8
7
  6
CONTINUOUS
  62
7
  10
1.862400
  20
-1.094400
  11
1.708800
  21
-1.094400
  0
LINE
  8
7
  6
CONTINUOUS
  62
7
  10
1.708800
  20
-1.094400
  11
1.632000
  21
-1.286400
  0
LINE
  8
8
  6
CONTINUOUS
  62
7
  10
0.704000
  20
-1.094400
  11
0.704000
  21
-2.112000
  0
LINE
  8
8
  6
CONTINUOUS
  62
7
  10
0.704000
  20
-2.112000
  11
0.857600
  21
-2.112000
  0
LINE
  8
8
  6
CONTINUOUS
  62
7
  10
0.857600
  20
-2.112000
  11
0.934400
  21
-1.920000
  0
LINE
  8
8
  6
CONTINUOUS
  62
7
  10
0.934400
  20
-1.920000
  11
0.934400
  21
-1.286400
  0
LINE
  8
8
  6
CONTINUOUS
  62
7
  10
0.934400
  20
-1.286400
  11
0.857600
  21
-1.094400
  0
LINE
  8
8
  6
CONTINUOUS
  62
7
  10
0.857600
  20
-1.094400
  11
0.704000
  21
-1.094400
  0
LINE
  8
9
  6
CONTINUOUS
  62
7
  10
1.280000
  20
1.792000
  11
1.280000
  21
0.640000
  0
LINE
  8
9
  6
CONTINUOUS
  62
7
  10
1.280000
  20
0.640000
  11
1.472000
  21
0.640000
  0
LINE
  8
9
  6
CONTINUOUS
  62
7
  10
1.472000
  20
0.640000
  11
1.472000
  21
1.024000
  0
LINE
  8
9
  6
CONTINUOUS
  62
7
  10
1.472000
  20
1.024000
  11
1.472000
  21
1.408000
  0
LINE
  8
9
  6
CONTINUOUS
  62
7
  10
1.472000
  20
1.408000
  11
1.472000
  21
1.792000
  0
LINE
  8
9
  6
CONTINUOUS
  62
7
  10
1.472000
  20
1.792000
  11
1.280000
  21
1.792000
  0
LINE
  8
10
  6
CONTINUOUS
  62
7
  10
1.024000
  20
1.792000
  11
1.024000
  21
0.640000
  0
LINE
  8
10
  6
CONTINUOUS
  62
7
  10
1.024000
  20
0.640000
  11
1.216000
  21
0.448000
  0
LINE
  8
10
  6
CONTINUOUS
  62
7
  10
1.216000
  20
0.448000
  11
1.216000
  21
0.640000
  0
LINE
  8
10
  6
CONTINUOUS
  62
7
  10
1.216000
  20
0.640000
  11
1.216000
  21
1.024000
  0
LINE
  8
10
  6
CONTINUOUS
  62
7
  10
1.216000
  20
1.024000
  11
1.216000
  21
1.408000
  0
LINE
  8
10
  6
CONTINUOUS
  62
7
  10
1.216000
  20
1.408000
  11
1.216000
  21
1.792000
  0
LINE
  8
10
  6
CONTINUOUS
  62
7
  10
1.216000
  20
1.792000
  11
1.216000
  21
1.984000
  0
LINE
  8
10
  6
CONTINUOUS
  62
7
  10
1.216000
  20
1.984000
  11
1.024000
  21
1.792000
  0
ENDSEC
  0
EOF
