ply
format ascii 1.0
comment VCGLIB generated
element vertex 687
property float x
property float y
property float z
element face 1349
property list uchar int vertex_indices
end_header
0.00838022 0.686481 0.00411098 
0.00777528 0.682689 0.0349371 
-0.000729698 0.693263 0.0207738 
-0.0122644 0.68734 0.00922533 
-0.00757879 0.683683 0.0349906 
-0.00740093 0.676409 0.00293352 
0.0084707 0.674451 0.0168525 
-0.00849843 0.675323 0.0265037 
-0.00194958 0.690614 0.017065 
0.0084273 0.686122 0.027136 
0.00974075 0.687238 0.00929396 
-0.00755063 0.685347 0.0287741 
0.00979908 0.670117 0.020483 
0.00694474 0.679385 0.0298309 
-0.00566394 0.675448 0.0289576 
0.00971753 0.679357 0.00836511 
-0.00165129 0.687012 0.0164491 
0.00302842 0.685215 0.0246179 
-0.0107236 0.676315 0.0116617 
0.0031686 0.673866 0.0161691 
0.0332735 0.704477 -0.0134585 
0.0334416 0.727132 -0.0282176 
0.0287092 0.687651 -0.00538566 
0.0162336 0.728028 -0.0489542 
-0.0333098 0.72777 -0.0282031 
-0.0370456 0.697487 -0.0176067 
0.0061961 0.74091 -0.0462031 
-0.0105556 0.755458 -0.0250212 
-0.0184438 0.737261 -0.0435148 
-0.00706199 0.716354 -0.0532433 
0.0219576 0.708549 -0.0448068 
0.032112 0.702849 -0.0221997 
-0.000861667 0.684699 -0.0422758 
-0.0166216 0.685914 -0.0380713 
0.000501291 0.703404 -0.0525868 
-0.0283014 0.714454 -0.0399295 
-0.031587 0.698807 -0.0152533 
0.0165707 0.679295 -0.0343751 
0.0258466 0.674834 -0.0198855 
0.0242092 0.675181 -0.00898582 
-0.0175216 0.658271 -0.0359052 
-0.0257523 0.670097 -0.0175393 
-0.00773016 0.66002 0.0102638 
0.000794362 0.668951 -0.0377943 
-0.00016432 0.652115 -0.0402078 
0.0281531 0.372309 0.0400332 
0.00921488 0.364893 0.0284936 
0.0192253 0.343546 -0.0238698 
0.0337822 0.30545 -0.0307912 
0.0227788 0.290971 -0.0304777 
0.0132628 0.311045 -0.023934 
0.000938899 0.32287 -0.00581941 
0.00305012 0.357369 0.0010735 
0.00119408 0.347187 0.0126267 
0.00120207 0.313565 0.00950632 
0.0433915 0.386232 0.0431152 
0.00533394 0.329242 0.0237314 
0.0228623 0.294647 0.0402366 
0.0239569 0.331781 0.0406551 
0.055927 0.352293 0.0461724 
0.0511352 0.317858 0.0488823 
0.0396453 0.295362 0.0483733 
0.0379719 0.32281 0.0504517 
0.0687452 0.389969 0.021411 
0.0640489 0.421341 -0.00830703 
0.0659775 0.40148 0.000340245 
0.0713679 0.337093 0.0280007 
0.0727495 0.30929 0.0107573 
0.0634004 0.314906 0.0406912 
0.0647929 0.351013 0.038859 
0.0744163 0.358625 0.00655825 
0.0554035 0.426142 -0.0235864 
0.0246418 0.412968 -0.0444278 
0.0410636 0.400567 -0.0432475 
0.0563603 0.401048 -0.0257055 
0.0447051 0.372692 -0.0434618 
0.0154139 0.393942 -0.0487156 
0.0708042 0.358446 -0.00875521 
0.0550715 0.376658 -0.0341336 
0.0524645 0.345614 -0.0298721 
0.00899726 0.347454 -0.0132503 
0.0163889 0.36297 -0.0421449 
0.00211434 0.36123 -0.030021 
0.0321067 0.365012 -0.0450365 
0.068342 0.321948 -0.00857808 
0.0348294 0.341601 -0.0309215 
0.0456223 0.325762 -0.0277376 
0.0584377 0.312476 -0.0188362 
0.00018598 0.396668 -0.0389416 
3.29539e-005 0.363415 -0.0200716 
0.0606572 0.446722 -0.00114906 
0.0642683 0.413379 0.0168374 
0.0527616 0.418586 0.0374614 
0.00623494 0.428421 0.0548899 
0.00624304 0.383435 0.045637 
0.0317695 0.451101 -0.0257457 
0.0428688 0.430969 -0.0324223 
0.0423403 0.425025 0.0416689 
0.021337 0.383017 0.0407892 
0.0299454 0.428678 0.0479045 
0.0552275 0.438691 0.0274823 
-0.000832953 0.425353 -0.0344686 
-0.0595914 0.448299 -0.002676 
-0.0594534 0.443182 0.0139722 
-0.0078167 0.384167 0.0453718 
-0.0124084 0.432739 0.0540927 
-0.0498372 0.437185 0.0366015 
-0.00112011 0.367289 0.0343419 
-0.0690058 0.371771 -0.00793647 
-0.023163 0.381428 0.0390733 
-0.00168014 0.357519 0.00531173 
-0.0195851 0.343325 -0.0239954 
-0.0108776 0.307192 -0.0223648 
-0.00330345 0.321444 -0.0113763 
-0.0379384 0.416175 0.0429401 
-0.0337833 0.376485 0.0420441 
-0.0169734 0.353586 0.0345971 
-0.0265242 0.303216 0.0428986 
-0.00481059 0.332223 0.0235143 
-0.0481157 0.390575 0.0427474 
-0.0557744 0.352432 0.0462035 
-0.0511346 0.317858 0.0488824 
-0.0396453 0.295361 0.0483731 
-0.0376571 0.322527 0.0504289 
-0.0696425 0.384794 0.0214228 
-0.0630922 0.424453 -0.0103751 
-0.0643979 0.412445 0.0162993 
-0.0652161 0.354928 0.037331 
-0.0720388 0.319553 0.0253117 
-0.0637829 0.31985 0.0408521 
-0.0739366 0.363426 0.00961449 
-0.0738169 0.341535 0.00128994 
-0.0658848 0.401878 -0.000398774 
-0.0437533 0.428396 -0.0330157 
-0.0592082 0.397197 -0.0205218 
-0.0541912 0.426583 -0.0247217 
-0.0252535 0.414816 -0.0438153 
-0.0411156 0.400775 -0.0432213 
-0.0152636 0.394759 -0.0484744 
-0.0444627 0.372177 -0.043538 
-0.0540757 0.378483 -0.0355643 
-0.0628136 0.351495 -0.0214396 
-0.0102498 0.346866 -0.0155199 
-0.00207085 0.376083 -0.0374368 
-0.00319329 0.359638 -0.0307508 
-0.0290058 0.362313 -0.0446276 
-0.0683818 0.321863 -0.00848825 
-0.0417135 0.34032 -0.0319918 
-0.0384521 0.323371 -0.0295408 
-0.0581725 0.310903 -0.0188572 
-0.0106932 0.367663 0.0305644 
0.0539484 0.548844 0.0231199 
0.0340119 0.544914 0.0394745 
0.0268239 0.622149 0.0127086 
0.0149792 0.606347 0.0275138 
0.0650727 0.558166 0.00385803 
0.0379772 0.591551 0.0351328 
0.0379291 0.56458 0.0455617 
0.0540932 0.563807 0.0343979 
0.0203568 0.583344 0.0411047 
0.0518233 0.578576 0.0343883 
0.0184638 0.559957 0.0468584 
0.0491844 0.632964 -0.015861 
0.0369986 0.625094 -0.0537756 
0.0213138 0.615187 -0.0620321 
-5.4233e-005 0.585297 -0.0616981 
0.0231306 0.642419 -0.0429944 
0.0220966 0.656344 -0.030953 
0.0581892 0.635376 -0.0299667 
0.0321393 0.646101 -0.0256469 
0.0324354 0.627099 -0.00187524 
0.0242004 0.645514 -0.00656397 
0.00020159 0.551596 0.0423797 
-0.0156429 0.61805 0.0189746 
-0.0222632 0.590687 0.037935 
0.000436848 0.602796 0.0278881 
-0.0634908 0.557283 0.00841388 
0.000417745 0.572333 0.0424111 
-0.0617458 0.571714 0.0243973 
-0.0508857 0.545702 0.0262583 
-0.0158336 0.56559 0.0463617 
-0.0429515 0.572431 0.0428573 
-0.0408272 0.59598 0.0304328 
-0.0426297 0.561188 0.0438868 
-0.0239857 0.622354 0.0147338 
-0.0229707 0.615718 -0.0623537 
-0.000144216 0.608901 -0.0581704 
-0.023674 0.639372 -0.0450228 
-0.0186672 0.565868 -0.064944 
-0.0292766 0.646992 -0.0342843 
-0.0442335 0.632478 -0.0148065 
-0.02929 0.645615 -0.0217036 
-0.0127669 0.626565 0.0115822 
-0.0751525 0.547497 -0.0196731 
0.0239695 0.589497 -0.0654526 
0.0610006 0.566811 -0.0567577 
0.0742836 0.553411 -0.0386384 
0.0747991 0.548629 -0.0190754 
0.0709278 0.576254 -0.00727802 
-0.0708141 0.589448 0.00646853 
-0.0464756 0.589879 -0.0626357 
-0.0613432 0.565284 -0.055945 
-0.0453276 0.549298 -0.0569627 
-0.0742125 0.55423 -0.0394002 
0.0653083 0.538207 0.00228585 
0.0535116 0.473232 -0.00702513 
0.0353864 0.471023 -0.0245064 
0.0489686 0.44916 -0.0177064 
0.0447466 0.446218 0.0427124 
0.0581922 0.457594 0.0225018 
0.056239 0.480064 0.0076414 
0.0432355 0.519199 0.0375604 
0.0427303 0.478883 0.0377343 
0.0528218 0.49792 0.0293663 
0.0165861 0.49096 0.0507211 
0.0563078 0.516915 0.0208123 
-7.63689e-005 0.540845 -0.055009 
0.0510221 0.492526 -0.0211786 
0.0603429 0.505723 -0.00633478 
0.0613827 0.514832 -0.0297253 
0.0509936 0.525018 -0.0442657 
0.0183987 0.560067 -0.0641706 
0.0426347 0.547942 -0.0573082 
0.00907822 0.450684 -0.0285411 
0.0267195 0.477137 -0.029696 
0.0163771 0.504989 -0.0421117 
0.0545346 0.483242 0.0222455 
-0.0119121 0.516575 -0.0461478 
-0.0535345 0.473205 -0.00698782 
-0.0340869 0.470933 -0.0253541 
-0.0459803 0.448997 -0.0207358 
-0.0435124 0.445772 0.0438771 
-0.057029 0.464545 0.0233625 
-0.0560977 0.481336 0.00645912 
-0.0655884 0.523804 -0.00536615 
-0.0451016 0.505157 0.036753 
-0.0422083 0.478948 0.0380995 
-0.0359426 0.545025 0.0394408 
-0.0173117 0.531781 0.0469621 
0.0100338 0.461365 0.0545186 
-0.0164808 0.490395 0.0508712 
-0.00754555 0.456982 0.0544458 
-0.0539616 0.502581 0.0264022 
-0.0128699 0.545336 -0.058982 
-0.0626209 0.516268 -0.0288117 
-0.0518979 0.493463 -0.0206567 
-0.0471537 0.513204 -0.0397599 
-0.0293402 0.521034 -0.0483974 
0.000620069 0.473758 -0.0277983 
-0.0185288 0.44648 -0.0283257 
-0.0133549 0.476316 -0.030451 
0.000277063 0.495052 -0.0331875 
-0.0576749 0.496399 0.0155102 
-0.0161662 0.512134 0.0508221 
0.0163908 0.519966 0.0493718 
0.0114448 0.626092 0.011881 
0.014084 0.650473 0.00297406 
-0.0239276 0.644983 -0.00504413 
0.000570878 0.624179 0.00965078 
0.168682 0.59797 0.00892876 
0.149099 0.629656 -0.020239 
0.169329 0.592729 -0.0273644 
0.141091 0.624789 -0.0348979 
0.123983 0.584661 -0.0201911 
0.171894 0.617803 -0.0261816 
0.123373 0.594725 0.000977567 
0.166739 0.609823 0.00984079 
-0.149097 0.629656 -0.0202397 
-0.176633 0.619866 -0.021835 
-0.141088 0.624789 -0.0348978 
-0.124834 0.584403 -0.0207207 
-0.126935 0.594972 0.00270898 
-0.124475 0.620133 -0.000523094 
0.0547889 0.628516 -0.00446129 
0.0598677 0.629841 -0.0405713 
0.126015 0.628934 -0.0141747 
0.115461 0.627584 -0.0319516 
0.0641604 0.606228 0.0115124 
0.0708168 0.592394 0.00852657 
0.0849705 0.603832 0.00603021 
0.0784781 0.590072 -0.01593 
0.0899571 0.620313 0.00807542 
0.123393 0.619457 -0.000446468 
0.125055 0.602465 0.00601481 
0.109634 0.610392 0.00411468 
0.0773981 0.633314 -0.00172275 
0.0769778 0.6388 -0.0136269 
0.112915 0.634344 -0.011691 
0.0483732 0.615147 -0.0558746 
0.0854928 0.626728 -0.0427634 
0.0967791 0.635866 -0.0300309 
0.0881896 0.613884 -0.0493784 
0.1127 0.618195 -0.0410949 
0.130093 0.604387 -0.0432414 
0.132887 0.588454 -0.0340462 
0.0992697 0.600654 -0.0431156 
0.0525845 0.59089 -0.0615471 
0.0807913 0.596122 -0.0486 
0.0836312 0.587903 -0.0231852 
0.0853477 0.588556 -0.034017 
0.097509 0.600245 -0.00156624 
-0.0538937 0.615439 -0.0546131 
-0.126015 0.628934 -0.0141755 
-0.115462 0.627582 -0.0319548 
-0.0975523 0.613712 0.00705796 
-0.0721657 0.600122 0.00758918 
-0.0612894 0.609171 0.0100729 
-0.076985 0.627309 0.00334167 
-0.105125 0.605742 0.00416385 
-0.0546174 0.62928 -0.00557451 
-0.0779159 0.638793 -0.0139546 
-0.108144 0.63517 -0.00928693 
-0.0855417 0.62674 -0.0427409 
-0.0967998 0.635878 -0.0300057 
-0.0903531 0.613394 -0.0487649 
-0.129059 0.615674 -0.0419971 
-0.13146 0.588232 -0.0338672 
-0.100408 0.601758 -0.0434991 
-0.131262 0.600662 -0.0417903 
-0.0606241 0.635493 -0.0321496 
-0.0809777 0.59611 -0.0484604 
-0.0803099 0.586719 -0.021251 
-0.0850942 0.588768 -0.0346782 
-0.0981172 0.589742 -0.0180886 
0.0157357 0.0594139 -0.00996934 
0.0115143 0.0345232 -0.00697139 
0.0230049 0.0390606 -0.030274 
0.0420715 0.0567007 -0.00956174 
0.0344021 0.0378752 0.0042329 
0.0524928 -0.0102407 0.00812919 
0.0157192 -0.019962 0.0274922 
0.0120698 0.0284336 -0.0182373 
0.0405386 0.0258603 -0.00840084 
0.0416303 0.0366286 -0.0180989 
0.00680693 0.018652 -0.0361526 
0.0183027 0.044617 0.00191597 
0.02731 0.0399493 0.00697824 
0.0180925 0.038645 -0.0265801 
0.0298336 0.0128431 -0.0342254 
0.0233569 -0.0117813 0.0426621 
0.0309052 -0.0262184 0.0608147 
0.0535691 -0.021718 0.0297789 
0.0202107 -0.0264431 0.0450206 
0.04217 -0.0163709 0.0368972 
0.0458472 -0.0225471 0.0320323 
0.0412657 -0.0196864 0.0472754 
0.0413178 -0.0293427 0.0425167 
0.0243528 0.00997468 0.0230693 
0.0320733 -0.0266397 0.0322156 
0.022521 -0.00353992 -0.000168977 
0.0353491 -0.0183116 0.0127355 
0.0523366 -0.0230284 0.0119169 
0.00881299 0.00425974 -0.0252652 
0.0448986 -0.00210764 -0.00662512 
0.0154752 0.0107642 -0.0421687 
0.00784569 0.00956906 -0.0131504 
0.0327724 -0.00160239 -0.0162421 
0.014259 0.00733179 0.0103274 
0.0435476 0.00209428 0.0112032 
0.0333425 -0.0282472 0.0441835 
0.0323622 -0.0183874 0.0435706 
0.0351499 0.00604209 0.022959 
-0.0419552 0.0719042 -0.0209106 
-0.0143131 0.0549686 -0.00691023 
-0.0229791 0.0390857 -0.030263 
-0.0567259 -0.0208052 0.0257482 
-0.0146277 -0.0175847 0.0339356 
-0.00991955 0.0232135 -0.0157037 
-0.00698303 0.0189726 -0.0361154 
-0.0210868 0.0418253 0.00471044 
-0.0272522 0.0400247 0.00694409 
-0.0180926 0.0386452 -0.0265805 
-0.034701 0.0224798 -0.024795 
-0.0243525 0.00997859 0.023067 
-0.0194322 -0.0182742 0.0193821 
-0.0342819 -0.0252195 0.0277161 
-0.0463132 -0.0228566 0.0114348 
-0.00843577 0.00454149 -0.0257998 
-0.0282114 0.0123569 -0.0373654 
-0.0479553 -0.00883329 -0.00119555 
-0.015732 0.0108691 -0.0421577 
-0.0214202 -0.00392838 0.00221926 
-0.0329417 -0.00135836 -0.0166821 
-0.0127288 0.0282368 -0.00211213 
-0.0142413 0.00830449 0.00957475 
-0.0435018 0.00197351 0.0113243 
-0.0436979 0.00586611 -0.00618963 
-0.0410686 0.0248001 -0.0103897 
-0.035151 0.00604139 0.0229585 
-0.0346983 0.0356538 0.00527415 
-0.0309038 -0.0262185 0.0608146 
-0.0411052 -0.0153477 0.0371594 
-0.0510308 -0.017741 0.0290283 
-0.0202173 -0.0264558 0.0450427 
-0.0253357 -0.0129325 0.0442968 
-0.0390219 -0.0219629 0.0494567 
-0.0413178 -0.0293427 0.0425167 
-0.0327667 -0.0282677 0.0428194 
-0.0323518 -0.0183751 0.0435701 
-0.0456293 -0.0234763 0.032576 
0.230688 0.583271 0.00433093 
0.171153 0.622631 0.0020159 
0.178702 0.626108 -0.00892012 
0.207576 0.626458 0.00637327 
0.181597 0.618675 0.00412817 
0.170519 0.587376 -0.0156779 
0.192068 0.595832 0.00633672 
0.174538 0.588626 -0.00432182 
0.203186 0.586141 -0.0147995 
0.20213 0.582389 -0.00260086 
0.184824 0.611686 -0.0254539 
0.233676 0.595941 -0.0115691 
0.20142 0.589828 0.00967221 
0.229837 0.587207 -0.00716389 
0.22833 0.586257 0.0133202 
0.28434 0.599056 0.015557 
0.249391 0.617232 -0.000205679 
0.299296 0.61306 0.0209283 
0.250819 0.616838 0.0245951 
0.254118 0.620469 0.0146227 
0.285912 0.606858 0.0414802 
0.231088 0.608945 0.0237688 
0.264036 0.602906 0.0321653 
0.21138 0.605955 -0.0213981 
0.275599 0.608519 0.00848715 
-0.247917 0.589243 0.00201738 
-0.277909 0.605195 0.00913414 
-0.259773 0.620155 0.0191775 
-0.285756 0.606677 0.0413751 
-0.213977 0.619997 0.0154838 
-0.232597 0.608953 0.0242577 
-0.262732 0.602836 0.0319712 
-0.253896 0.612976 0.0273597 
-0.279689 0.615779 0.014987 
-0.218912 0.585794 -0.0099307 
-0.180158 0.591308 0.00263333 
-0.169621 0.62137 0.00339577 
-0.181552 0.618533 0.00383866 
-0.170353 0.604016 0.0103904 
-0.178089 0.626052 -0.00907967 
-0.205462 0.627454 0.00349468 
-0.211308 0.624677 -0.00538459 
-0.21404 0.588078 0.0126934 
-0.194438 0.583214 -0.00647118 
-0.184824 0.611463 -0.0256707 
-0.206361 0.605658 -0.0233599 
-0.246452 0.613566 -0.00481544 
-0.234558 0.597432 -0.0113877 
-0.172986 0.588389 -0.0196287 
-0.192892 0.599341 0.00698651 
-0.232415 0.584234 0.00960348 
0.168289 0.605033 -0.0324916 
-0.198318 0.593493 -0.0250235 
-0.165229 0.608393 -0.0330766 
0.204743 0.625407 -0.008059 
0.19776 0.595041 -0.0252709 
-0.174306 0.596357 -0.0286794 
0.311892 0.600465 0.0368697 
0.33507 0.594587 0.0259986 
0.331889 0.604553 0.023367 
0.308353 0.592889 0.0570995 
0.317717 0.604318 0.0559493 
0.343704 0.59329 0.0747244 
0.351221 0.601134 0.0511864 
0.34979 0.602527 0.0417202 
0.313324 0.598971 0.0667497 
0.327849 0.617182 0.0443008 
0.307708 0.592602 0.0213793 
0.302423 0.609954 0.0563771 
0.299348 0.597 0.0669946 
0.296653 0.591258 0.0477226 
0.289278 0.599355 0.0321569 
0.345683 0.585978 0.0694001 
0.341638 0.60625 0.0667339 
0.344712 0.60523 0.0577698 
0.321005 0.582011 0.0743602 
0.353028 0.583044 0.0488366 
0.345443 0.592965 0.0309567 
0.351819 0.586926 0.0573688 
0.351208 0.592086 0.03989 
0.334569 0.600927 0.0440693 
0.331659 0.60522 0.0556161 
0.321646 0.618034 0.0574447 
0.329122 0.612929 0.0343506 
0.291653 0.615364 0.0368225 
0.286726 0.616584 0.0205881 
0.297856 0.601378 0.0171448 
-0.288418 0.600585 0.0346162 
-0.31695 0.603645 0.0443689 
-0.327205 0.594136 0.0243316 
-0.309454 0.595065 0.0174664 
-0.31838 0.61887 0.0545559 
-0.294405 0.616643 0.0279002 
-0.291832 0.614493 0.0384622 
-0.303775 0.61153 0.0209613 
-0.292377 0.600178 0.019677 
-0.328899 0.616546 0.0437685 
-0.320422 0.610419 0.0614273 
-0.338507 0.608519 0.066521 
-0.331533 0.603676 0.0526092 
-0.343236 0.591832 0.0737621 
-0.348358 0.590863 0.0675279 
-0.327532 0.614102 0.0510093 
-0.348871 0.606095 0.0522184 
-0.35333 0.581914 0.0569138 
-0.355047 0.586389 0.0632956 
-0.327908 0.607628 0.0253495 
-0.337343 0.59371 0.0275596 
-0.345342 0.59331 0.0312645 
-0.328574 0.613792 0.0351548 
-0.337925 0.597799 0.0419475 
-0.347171 0.59929 0.0373375 
-0.343797 0.602879 0.0463477 
-0.35747 0.57972 0.0476663 
-0.313258 0.590362 0.0743759 
-0.317686 0.583472 0.0710748 
-0.323397 0.591924 0.0725377 
-0.308624 0.593145 0.0557298 
-0.30009 0.594742 0.0335464 
-0.297756 0.591088 0.0565893 
-0.300987 0.606612 0.0592729 
0.0119028 0.280979 -0.0217889 
0.00756998 0.291265 0.0164335 
0.00581659 0.272905 -0.000894097 
0.0108599 0.256009 -0.0162908 
0.00586497 0.224231 -0.00129857 
0.0206324 0.191765 0.0135161 
0.0159408 0.180441 -0.000447282 
0.0119268 0.209744 -0.0140752 
0.0559305 0.149588 -0.00276786 
0.0302886 0.121757 -0.0368059 
0.0475298 0.0870743 -0.0143069 
0.0498138 0.127555 0.00327924 
0.0549672 0.11633 -0.0179503 
0.0369568 0.0532169 -0.0208045 
0.0298046 0.0636428 -0.0288163 
0.0432931 0.0837945 -0.00216663 
0.0179866 0.0899439 -0.0048918 
0.0184507 0.0765861 -0.0263661 
0.00842043 0.260579 0.0157502 
0.0135302 0.245103 0.0298356 
0.00933653 0.219777 0.0078658 
0.0258308 0.249175 0.0379453 
0.0523947 0.268184 0.0400433 
0.0462727 0.241184 0.0312565 
0.060422 0.25998 0.0289746 
0.0663275 0.272433 0.0202324 
0.0551063 0.232042 0.00702406 
0.0603122 0.264105 -0.000664186 
0.0546244 0.220238 -0.00708906 
0.0544117 0.19524 -0.00515086 
0.0585777 0.28377 -0.0125461 
0.0494598 0.232513 -0.015529 
0.050698 0.277068 -0.0230329 
0.032346 0.27385 -0.0297888 
0.0259113 0.237858 -0.0232414 
0.041218 0.229634 -0.0207052 
0.0475275 0.192893 0.00866101 
0.0434603 0.191662 0.0141059 
0.0456979 0.179081 -0.0328022 
0.0511448 0.200994 -0.0155344 
0.0567451 0.160909 -0.0274469 
0.059558 0.154839 -0.0172218 
0.0516977 0.143735 -0.0362757 
0.0416735 0.143765 -0.0422865 
0.0421996 0.116851 -0.0332757 
0.0210776 0.208595 -0.0212392 
0.0136534 0.152863 -0.0343467 
0.0137827 0.191323 -0.0127018 
0.00830999 0.154492 -0.0216071 
0.0151635 0.0825811 -0.0199175 
0.0103895 0.132193 -0.010547 
0.0291649 0.162257 -0.0398423 
0.021185 0.136965 -0.0405623 
0.0212821 0.118178 -0.0337406 
0.0097901 0.131979 -0.0254686 
0.0378331 0.22522 0.033503 
0.0272132 0.205682 0.0267023 
0.0256529 0.229682 0.0311931 
0.0428608 0.207482 0.0262383 
0.0351469 0.184896 0.0151704 
0.0331787 0.215528 -0.0242379 
0.0360245 0.150546 0.011343 
0.0261012 0.164257 0.00825965 
0.0252713 0.0933198 0.00367886 
0.0334675 0.0924092 0.00634744 
-0.0263407 0.288729 -0.0316773 
-0.000377172 0.311971 0.00367202 
-0.00951131 0.266767 -0.0149173 
-0.0164475 0.282951 -0.0256305 
-0.00742803 0.277857 0.0109327 
-0.0066891 0.268081 -0.00364422 
-0.00543645 0.235152 0.00190248 
-0.0203135 0.193471 0.0141855 
-0.0163731 0.180037 4.34594e-005 
-0.0135921 0.190517 -0.0133483 
-0.0230618 0.238095 -0.0227996 
-0.0127136 0.289438 0.0251156 
-0.0093268 0.203959 0.000434425 
-0.0135688 0.245092 0.0298807 
-0.0109516 0.228767 0.013163 
-0.0258304 0.249174 0.0379451 
-0.0523992 0.268151 0.040035 
-0.0649577 0.267126 0.0172769 
-0.0462843 0.241184 0.0312541 
-0.0603081 0.259624 0.0289296 
-0.0705763 0.30022 0.00856087 
-0.0600481 0.272921 -0.00632318 
-0.0543755 0.230742 0.00811306 
-0.0551237 0.219267 -0.0060855 
-0.053392 0.282121 -0.0207055 
-0.0433833 0.279549 -0.0278617 
-0.0428056 0.233018 -0.0205899 
-0.0302888 0.214777 -0.0240479 
-0.0427198 0.213799 -0.0224595 
-0.053346 0.163452 -0.0316318 
-0.0512873 0.201067 -0.0151997 
-0.0188283 0.207826 -0.0192812 
-0.0378866 0.225219 0.0335014 
-0.0432934 0.206702 0.025532 
-0.0272134 0.205682 0.0267024 
-0.0256528 0.229682 0.031193 
-0.0352383 0.184796 0.0151401 
-0.0420509 0.0532767 -0.0138406 
-0.0545113 0.194373 -0.00527172 
-0.0557763 0.142503 -0.00233207 
-0.025614 0.161768 0.00739771 
-0.030285 0.121704 -0.0367979 
-0.0456155 0.0800324 -0.0106906 
-0.0572791 0.129006 -0.0195531 
-0.0297474 0.0636982 -0.0288291 
-0.0184484 0.0766657 -0.026372 
-0.0175426 0.0919308 -0.00533329 
-0.0508701 0.134859 0.00318815 
-0.0452209 0.1932 0.0125013 
-0.036324 0.0780175 0.00463642 
-0.0423474 0.130295 0.00842633 
-0.0582068 0.159261 -0.021971 
-0.040987 0.159943 -0.0401323 
-0.0480545 0.137775 -0.0391394 
-0.0422936 0.117123 -0.033289 
-0.0117284 0.159056 -0.0288194 
-0.0123288 0.139064 -0.00733651 
-0.0150037 0.0816822 -0.0188023 
-0.00765806 0.144832 -0.016063 
-0.0261698 0.159261 -0.03989 
-0.0186579 0.141217 -0.0403951 
-0.0212821 0.118178 -0.0337406 
-0.00962402 0.132461 -0.0253316 
-0.0362794 0.0572129 0.00251811 
-0.032794 0.1402 0.00996892 
-0.0273206 0.0912518 0.00537905 
0.0279623 0.741645 -0.0260726 
0.0320829 0.734939 -0.00449221 
0.0199636 0.736685 0.0249902 
-0.000383216 0.74162 0.0303311 
0.0119864 0.747664 0.0225147 
0.0189943 0.752274 0.00231149 
0.00664573 0.719811 0.036201 
0.0235683 0.714311 0.0265504 
0.0290662 0.700976 0.0129009 
-0.029565 0.743813 -0.0156865 
-0.00936537 0.756319 0.00715878 
-0.0319144 0.735031 -0.0028351 
-0.0329784 0.708817 -0.00792092 
-0.0177442 0.744172 0.0221971 
0.0094651 0.756721 -0.0217478 
-0.0223241 0.671212 -0.00612568 
-0.000424433 0.70895 0.0382933 
-0.0114513 0.720305 0.0352504 
0.0267396 0.674854 0.00983623 
0.00654808 0.659299 0.0116381 
0.0235518 0.698278 0.0264327 
0.00836452 0.662062 0.032003 
0.00925125 0.706857 0.0294106 
-0.024765 0.710128 0.0241273 
-0.0238632 0.6942 0.0253375 
-0.0256332 0.673185 0.0112118 
-0.00701752 0.663007 0.0326268 
-0.00727202 0.709347 0.0280201 
-0.00224691 0.688273 0.0388572 
0.0185121 0.727814 0.0283538 
0.0288054 0.713918 0.0127113 
0.0202385 0.715617 0.032229 
-0.0221468 0.728 0.0257949 
0.00125896 0.723266 0.0372227 
-0.0255299 0.714898 0.0227552 
3 1 2 0 
3 2 1 4 
3 2 3 0 
3 3 2 4 
3 0 3 5 
3 4 1 6 
3 6 1 0 
3 3 7 5 
3 5 7 6 
3 3 4 7 
3 7 4 6 
3 10 9 8 
3 11 8 9 
3 13 14 12 
3 13 12 15 
3 19 13 15 
3 14 19 18 
3 13 19 14 
3 16 18 17 
3 15 16 17 
3 15 18 16 
3 19 15 17 
3 19 17 18 
3 31 20 22 
3 26 652 23 
3 652 21 23 
3 652 26 666 
3 30 21 31 
3 21 30 23 
3 652 653 21 
3 20 31 21 
3 26 27 666 
3 34 29 23 
3 29 26 23 
3 664 25 36 
3 24 661 28 
3 28 661 27 
3 36 24 35 
3 28 29 35 
3 35 24 28 
3 24 663 661 
3 664 36 25 
3 27 26 28 
3 29 28 26 
3 23 30 34 
3 37 32 34 
3 37 34 30 
3 30 31 38 
3 30 38 37 
3 35 29 33 
3 34 33 29 
3 32 33 34 
3 41 35 33 
3 35 41 36 
3 667 36 41 
3 37 43 32 
3 38 31 39 
3 32 43 33 
3 22 39 31 
3 37 167 43 
3 167 38 39 
3 167 39 171 
3 167 37 38 
3 171 39 256 
3 671 256 39 
3 40 41 33 
3 43 40 33 
3 667 41 257 
3 667 257 42 
3 191 41 40 
3 189 191 40 
3 43 166 44 
3 40 43 44 
3 166 43 167 
3 77 74 65 
3 46 45 98 
3 46 58 45 
3 46 53 56 
3 46 110 52 
3 46 52 53 
3 47 85 48 
3 47 50 80 
3 49 47 48 
3 47 49 50 
3 80 51 52 
3 51 80 50 
3 51 53 52 
3 56 53 54 
3 54 53 51 
3 521 51 50 
3 98 45 55 
3 97 98 55 
3 55 92 97 
3 58 55 45 
3 58 56 57 
3 57 56 522 
3 92 55 59 
3 55 62 59 
3 59 62 60 
3 62 61 60 
3 62 55 58 
3 62 57 61 
3 62 58 57 
3 70 65 63 
3 63 66 70 
3 63 65 91 
3 63 92 69 
3 92 63 91 
3 65 74 64 
3 64 91 65 
3 66 63 69 
3 59 69 92 
3 67 66 546 
3 60 68 59 
3 68 69 59 
3 66 69 68 
3 66 68 546 
3 68 545 546 
3 77 70 67 
3 77 67 84 
3 70 66 67 
3 70 77 65 
3 101 95 72 
3 72 95 96 
3 96 71 73 
3 73 72 96 
3 71 74 73 
3 74 71 64 
3 74 78 73 
3 101 72 76 
3 72 73 76 
3 76 73 75 
3 78 75 73 
3 76 75 83 
3 88 76 81 
3 83 81 76 
3 78 74 77 
3 77 79 78 
3 79 75 78 
3 82 47 80 
3 81 47 82 
3 88 81 82 
3 80 52 89 
3 80 89 82 
3 83 85 81 
3 75 79 83 
3 79 85 83 
3 85 47 81 
3 79 77 84 
3 84 87 79 
3 86 79 87 
3 85 79 86 
3 85 86 48 
3 553 86 87 
3 84 551 87 
3 553 48 86 
3 98 107 46 
3 95 206 207 
3 101 76 88 
3 89 88 82 
3 209 100 90 
3 99 98 97 
3 92 91 100 
3 90 71 207 
3 90 64 71 
3 90 100 91 
3 64 90 91 
3 99 239 93 
3 93 94 99 
3 93 239 241 
3 239 99 208 
3 223 95 101 
3 95 207 96 
3 207 71 96 
3 92 100 97 
3 98 99 94 
3 107 98 94 
3 110 46 107 
3 208 97 100 
3 100 209 208 
3 99 97 208 
3 229 249 230 
3 101 249 223 
3 88 138 101 
3 143 88 89 
3 89 144 143 
3 103 232 102 
3 106 232 103 
3 106 103 126 
3 135 102 230 
3 135 125 102 
3 125 126 103 
3 102 125 103 
3 104 94 93 
3 105 104 93 
3 104 105 114 
3 114 105 231 
3 105 93 241 
3 241 231 105 
3 230 249 133 
3 135 230 133 
3 106 119 114 
3 114 109 104 
3 107 94 104 
3 104 109 107 
3 109 150 107 
3 150 110 107 
3 231 232 106 
3 106 114 231 
3 56 58 46 
3 108 134 140 
3 132 134 108 
3 114 115 109 
3 150 116 118 
3 109 116 150 
3 118 110 150 
3 147 111 148 
3 148 111 586 
3 586 111 112 
3 111 142 112 
3 142 110 113 
3 112 142 113 
3 110 587 113 
3 116 117 118 
3 110 118 587 
3 587 588 113 
3 118 597 590 
3 115 114 119 
3 116 109 115 
3 115 123 116 
3 123 117 116 
3 597 118 117 
3 120 123 119 
3 123 115 119 
3 121 123 120 
3 122 123 121 
3 122 117 123 
3 124 132 130 
3 132 124 126 
3 106 126 124 
3 124 127 106 
3 125 134 132 
3 125 132 126 
3 127 120 119 
3 119 106 127 
3 130 128 124 
3 127 124 128 
3 128 129 127 
3 606 603 128 
3 129 121 120 
3 120 127 129 
3 128 605 129 
3 130 108 131 
3 131 108 141 
3 146 131 141 
3 606 128 131 
3 131 128 130 
3 606 131 146 
3 132 108 130 
3 136 249 101 
3 133 249 136 
3 133 136 137 
3 137 135 133 
3 135 134 125 
3 137 140 135 
3 138 136 101 
3 137 136 138 
3 139 137 138 
3 139 140 137 
3 147 141 139 
3 139 138 145 
3 143 145 138 
3 134 135 140 
3 108 140 141 
3 139 141 140 
3 149 141 147 
3 111 144 142 
3 138 88 143 
3 145 143 144 
3 110 142 144 
3 110 144 89 
3 147 139 145 
3 144 111 147 
3 147 145 144 
3 149 146 141 
3 147 148 149 
3 586 611 148 
3 148 611 149 
3 149 607 146 
3 89 52 110 
3 155 151 204 
3 215 204 151 
3 161 177 172 
3 172 152 161 
3 152 157 161 
3 175 159 154 
3 155 204 197 
3 170 162 169 
3 175 255 258 
3 211 151 152 
3 211 152 254 
3 254 152 172 
3 172 238 254 
3 153 277 273 
3 156 277 153 
3 154 156 153 
3 155 198 278 
3 159 175 177 
3 155 158 151 
3 151 158 152 
3 152 158 157 
3 159 177 161 
3 160 158 278 
3 154 159 156 
3 160 277 156 
3 160 156 157 
3 156 159 157 
3 160 157 158 
3 158 155 278 
3 157 159 161 
3 162 170 273 
3 154 255 175 
3 170 153 273 
3 255 154 153 
3 165 221 216 
3 168 169 162 
3 163 274 288 
3 163 288 164 
3 274 166 168 
3 163 166 274 
3 164 166 163 
3 165 164 194 
3 164 165 186 
3 221 165 194 
3 166 164 186 
3 195 221 194 
3 169 168 166 
3 166 167 169 
3 171 169 167 
3 171 170 169 
3 255 153 170 
3 255 170 171 
3 194 164 288 
3 197 219 196 
3 196 219 220 
3 196 220 195 
3 222 195 220 
3 195 222 221 
3 172 180 183 
3 237 172 183 
3 177 180 172 
3 175 258 173 
3 309 306 184 
3 184 192 190 
3 188 201 200 
3 176 193 234 
3 187 44 166 
3 166 186 187 
3 192 173 258 
3 257 41 191 
3 237 238 172 
3 242 179 176 
3 184 306 173 
3 173 174 175 
3 182 174 173 
3 182 173 306 
3 199 321 176 
3 177 174 180 
3 175 174 177 
3 179 183 176 
3 305 178 181 
3 306 181 182 
3 305 181 306 
3 181 178 183 
3 180 174 181 
3 178 176 183 
3 174 182 181 
3 179 237 183 
3 181 183 180 
3 309 184 190 
3 184 173 192 
3 188 216 243 
3 216 188 165 
3 191 189 190 
3 189 319 190 
3 187 185 301 
3 301 319 187 
3 189 187 319 
3 165 185 186 
3 188 200 185 
3 165 188 185 
3 187 186 185 
3 44 187 40 
3 187 189 40 
3 190 192 191 
3 257 191 192 
3 185 200 301 
3 203 244 193 
3 246 244 203 
3 246 203 201 
3 246 201 202 
3 202 201 188 
3 193 244 234 
3 202 188 247 
3 202 247 246 
3 197 198 155 
3 277 160 278 
3 297 196 195 
3 296 195 194 
3 296 194 288 
3 299 197 196 
3 199 176 178 
3 178 305 199 
3 203 320 201 
3 200 201 320 
3 193 322 203 
3 176 321 193 
3 224 206 223 
3 206 95 223 
3 214 239 212 
3 217 210 205 
3 207 205 90 
3 206 205 207 
3 205 206 217 
3 210 226 209 
3 210 209 90 
3 205 210 90 
3 212 208 209 
3 212 209 226 
3 213 215 211 
3 213 211 212 
3 253 254 238 
3 254 253 214 
3 214 212 211 
3 211 254 214 
3 208 212 239 
3 151 211 215 
3 226 204 215 
3 210 218 226 
3 218 204 226 
3 213 226 215 
3 216 221 225 
3 218 210 217 
3 219 197 218 
3 197 204 218 
3 219 218 217 
3 217 224 219 
3 219 224 220 
3 206 224 217 
3 222 220 224 
3 224 225 222 
3 221 222 225 
3 223 248 224 
3 225 224 248 
3 225 248 251 
3 216 225 251 
3 213 212 226 
3 246 247 229 
3 229 247 250 
3 227 250 247 
3 227 247 243 
3 236 241 240 
3 241 239 240 
3 228 233 245 
3 228 230 102 
3 228 229 230 
3 245 229 228 
3 236 231 241 
3 232 233 102 
3 233 228 102 
3 231 236 232 
3 233 232 252 
3 233 252 234 
3 237 179 235 
3 242 232 236 
3 242 236 235 
3 237 235 238 
3 253 240 214 
3 235 236 240 
3 240 253 235 
3 214 240 239 
3 234 252 176 
3 179 242 235 
3 252 242 176 
3 251 227 216 
3 216 227 243 
3 245 233 234 
3 234 244 245 
3 244 246 245 
3 246 229 245 
3 247 188 243 
3 251 248 250 
3 249 250 248 
3 249 248 223 
3 251 250 227 
3 250 249 229 
3 242 252 232 
3 235 253 238 
3 258 256 671 
3 171 256 255 
3 256 258 255 
3 671 42 258 
3 257 258 42 
3 257 192 258 
3 401 260 275 
3 401 275 282 
3 282 266 401 
3 283 259 266 
3 259 265 407 
3 401 402 260 
3 264 260 402 
3 260 264 262 
3 294 405 263 
3 405 294 261 
3 451 455 261 
3 261 294 293 
3 261 293 451 
3 264 451 293 
3 264 293 262 
3 263 405 407 
3 265 259 283 
3 407 265 263 
3 282 284 266 
3 267 436 302 
3 272 302 436 
3 308 272 436 
3 438 271 308 
3 438 435 271 
3 438 308 436 
3 439 436 267 
3 267 268 439 
3 268 267 269 
3 270 448 316 
3 316 448 456 
3 318 456 453 
3 453 315 318 
3 318 316 456 
3 453 268 269 
3 315 453 269 
3 435 448 270 
3 444 268 453 
3 270 271 435 
3 282 281 284 
3 275 287 282 
3 287 281 282 
3 299 263 298 
3 291 297 288 
3 291 295 297 
3 274 168 290 
3 276 290 287 
3 287 275 276 
3 275 260 276 
3 281 277 279 
3 284 281 279 
3 280 278 198 
3 279 300 284 
3 278 279 277 
3 280 279 278 
3 285 277 281 
3 273 277 285 
3 279 280 300 
3 265 283 300 
3 283 284 300 
3 284 283 266 
3 300 263 265 
3 281 287 285 
3 273 285 286 
3 273 286 162 
3 162 286 168 
3 287 286 285 
3 168 286 290 
3 290 286 287 
3 291 288 289 
3 290 289 274 
3 289 288 274 
3 289 290 276 
3 289 276 291 
3 292 295 291 
3 291 276 292 
3 262 292 276 
3 293 295 292 
3 260 262 276 
3 293 292 262 
3 299 294 263 
3 295 294 299 
3 297 295 299 
3 294 295 293 
3 296 297 195 
3 296 288 297 
3 298 197 299 
3 298 198 197 
3 298 280 198 
3 196 297 299 
3 280 298 300 
3 300 298 263 
3 311 302 272 
3 270 322 323 
3 321 323 322 
3 320 314 301 
3 320 317 314 
3 313 303 311 
3 302 311 303 
3 303 267 302 
3 304 306 307 
3 305 306 304 
3 304 308 305 
3 199 305 321 
3 307 306 309 
3 304 307 272 
3 272 307 311 
3 308 321 305 
3 323 321 308 
3 323 308 271 
3 272 308 304 
3 270 323 271 
3 319 310 309 
3 309 190 319 
3 310 307 309 
3 311 307 310 
3 313 310 319 
3 310 313 311 
3 312 301 314 
3 312 313 319 
3 319 301 312 
3 303 313 312 
3 303 312 314 
3 303 314 317 
3 317 315 303 
3 303 315 269 
3 269 267 303 
3 316 322 270 
3 316 317 322 
3 322 317 320 
3 317 316 318 
3 315 317 318 
3 301 200 320 
3 321 322 193 
3 320 203 322 
3 535 326 538 
3 326 337 538 
3 538 337 570 
3 534 326 535 
3 337 324 570 
3 534 327 333 
3 333 327 332 
3 324 325 335 
3 325 324 331 
3 331 324 337 
3 326 534 333 
3 332 327 328 
3 357 330 339 
3 339 361 347 
3 339 347 357 
3 361 360 343 
3 329 358 341 
3 361 343 358 
3 358 343 341 
3 355 331 334 
3 332 338 333 
3 355 325 331 
3 326 333 338 
3 326 334 337 
3 334 331 337 
3 338 354 326 
3 334 326 354 
3 357 347 335 
3 347 336 335 
3 325 357 335 
3 342 339 330 
3 339 340 360 
3 360 340 359 
3 339 342 340 
3 340 342 359 
3 346 343 345 
3 344 343 346 
3 345 360 359 
3 359 346 345 
3 344 341 343 
3 343 360 345 
3 344 346 359 
3 357 349 330 
3 329 341 351 
3 329 351 353 
3 341 344 351 
3 348 330 350 
3 348 359 342 
3 342 330 348 
3 344 359 348 
3 349 350 330 
3 351 356 353 
3 344 348 351 
3 356 351 350 
3 350 349 356 
3 348 350 351 
3 356 352 354 
3 334 354 352 
3 356 354 338 
3 356 338 353 
3 334 352 355 
3 349 355 352 
3 352 356 349 
3 349 357 355 
3 357 325 355 
3 358 353 332 
3 332 328 358 
3 358 328 361 
3 353 338 332 
3 353 358 329 
3 360 361 339 
3 336 347 361 
3 328 336 361 
3 336 584 335 
3 631 371 364 
3 364 630 631 
3 643 371 631 
3 630 364 362 
3 363 371 643 
3 371 363 367 
3 623 362 364 
3 623 364 372 
3 649 623 387 
3 649 387 389 
3 363 369 383 
3 370 649 389 
3 379 365 386 
3 365 385 386 
3 374 384 366 
3 388 394 373 
3 384 373 394 
3 384 394 366 
3 391 398 388 
3 385 365 392 
3 391 388 385 
3 392 391 385 
3 367 363 383 
3 387 623 372 
3 368 364 371 
3 367 368 371 
3 380 378 364 
3 378 372 364 
3 364 368 380 
3 373 384 369 
3 370 373 369 
3 369 384 383 
3 374 381 384 
3 365 376 399 
3 374 366 375 
3 375 381 374 
3 384 381 377 
3 365 379 376 
3 379 382 376 
3 375 399 376 
3 381 376 382 
3 376 381 375 
3 377 382 380 
3 377 380 368 
3 386 387 378 
3 379 386 378 
3 377 367 384 
3 378 380 382 
3 378 382 379 
3 367 377 368 
3 382 377 381 
3 367 383 384 
3 387 386 385 
3 389 387 385 
3 389 385 388 
3 372 378 387 
3 388 398 394 
3 373 370 388 
3 388 370 389 
3 398 390 394 
3 390 398 397 
3 393 394 390 
3 397 393 390 
3 397 398 395 
3 394 393 366 
3 391 396 395 
3 391 399 396 
3 392 365 399 
3 397 395 396 
3 395 398 391 
3 391 392 399 
3 397 396 399 
3 397 375 393 
3 375 366 393 
3 375 397 399 
3 414 422 412 
3 422 421 412 
3 400 408 413 
3 401 266 404 
3 404 266 406 
3 266 259 406 
3 406 259 407 
3 261 455 408 
3 405 261 408 
3 454 402 403 
3 416 410 454 
3 454 419 416 
3 418 419 403 
3 419 454 403 
3 423 410 416 
3 401 404 402 
3 404 403 402 
3 404 418 403 
3 406 421 404 
3 418 404 421 
3 405 409 407 
3 408 409 405 
3 407 412 406 
3 409 412 407 
3 400 409 408 
3 409 414 412 
3 409 400 414 
3 408 455 411 
3 423 411 455 
3 413 408 411 
3 451 264 410 
3 412 421 406 
3 400 413 415 
3 414 400 471 
3 471 422 414 
3 413 411 415 
3 400 415 471 
3 422 471 420 
3 420 418 422 
3 415 486 471 
3 419 485 416 
3 419 418 484 
3 485 419 484 
3 420 484 418 
3 418 421 422 
3 424 423 416 
3 424 416 485 
3 485 417 424 
3 423 424 411 
3 424 415 411 
3 424 417 486 
3 486 415 424 
3 442 431 450 
3 495 425 450 
3 495 450 487 
3 450 431 487 
3 495 426 425 
3 487 431 428 
3 431 432 428 
3 492 433 494 
3 441 446 433 
3 433 427 441 
3 492 427 433 
3 427 440 441 
3 492 493 427 
3 427 493 432 
3 432 493 428 
3 430 429 432 
3 430 432 431 
3 429 440 427 
3 429 427 432 
3 446 426 433 
3 426 494 433 
3 426 446 447 
3 447 425 426 
3 495 494 426 
3 452 443 434 
3 430 431 449 
3 430 449 437 
3 434 450 425 
3 439 437 436 
3 449 438 437 
3 435 438 449 
3 437 438 436 
3 439 441 440 
3 441 444 445 
3 441 445 446 
3 440 437 439 
3 429 437 440 
3 429 430 437 
3 443 448 435 
3 442 435 449 
3 435 442 443 
3 443 450 434 
3 450 443 442 
3 447 452 434 
3 447 445 452 
3 447 434 425 
3 446 445 447 
3 431 442 449 
3 410 423 451 
3 448 443 452 
3 445 444 453 
3 454 264 402 
3 268 441 439 
3 454 410 264 
3 444 441 268 
3 423 455 451 
3 448 452 456 
3 452 445 453 
3 453 456 452 
3 478 463 474 
3 485 466 483 
3 468 461 482 
3 459 467 486 
3 480 457 458 
3 458 457 467 
3 460 457 461 
3 459 458 467 
3 459 417 483 
3 460 470 457 
3 460 461 465 
3 465 475 460 
3 473 481 482 
3 461 462 482 
3 482 462 473 
3 462 461 481 
3 481 472 462 
3 472 481 473 
3 477 458 459 
3 479 459 483 
3 483 480 464 
3 479 483 464 
3 476 464 480 
3 479 464 476 
3 465 468 469 
3 469 460 475 
3 463 478 480 
3 474 463 466 
3 465 469 475 
3 467 457 471 
3 466 484 482 
3 468 482 484 
3 459 486 417 
3 457 470 471 
3 461 468 465 
3 468 484 469 
3 484 420 469 
3 470 460 469 
3 467 471 486 
3 485 484 466 
3 471 470 420 
3 469 420 470 
3 473 462 472 
3 483 417 485 
3 458 477 459 
3 478 481 480 
3 459 479 480 
3 481 466 482 
3 457 481 461 
3 483 463 480 
3 481 457 480 
3 459 480 458 
3 474 466 481 
3 478 474 481 
3 479 476 480 
3 463 483 466 
3 496 491 492 
3 494 506 509 
3 492 494 509 
3 489 510 507 
3 497 488 520 
3 488 489 518 
3 488 499 510 
3 488 510 489 
3 490 518 489 
3 518 517 488 
3 497 520 491 
3 496 502 491 
3 509 496 492 
3 494 490 506 
3 492 491 493 
3 491 520 493 
3 494 495 490 
3 495 518 490 
3 518 495 487 
3 488 497 499 
3 510 499 512 
3 506 490 489 
3 510 506 507 
3 496 509 512 
3 497 491 498 
3 498 491 502 
3 498 500 497 
3 499 497 500 
3 501 499 500 
3 501 500 498 
3 502 501 498 
3 502 499 501 
3 496 512 503 
3 502 496 503 
3 512 499 504 
3 499 502 505 
3 504 499 505 
3 503 505 502 
3 503 512 504 
3 505 503 504 
3 506 507 508 
3 506 489 507 
3 506 508 507 
3 509 506 511 
3 512 509 511 
3 510 511 506 
3 511 510 513 
3 510 512 513 
3 511 513 512 
3 519 515 517 
3 517 515 516 
3 520 517 516 
3 514 520 516 
3 520 514 519 
3 514 515 519 
3 514 516 515 
3 518 519 517 
3 520 488 517 
3 520 428 493 
3 487 519 518 
3 428 519 487 
3 520 519 428 
3 537 324 335 
3 48 554 49 
3 521 50 49 
3 555 49 554 
3 522 56 54 
3 522 54 523 
3 523 54 51 
3 521 524 51 
3 525 523 524 
3 523 51 524 
3 524 521 49 
3 539 522 523 
3 539 523 525 
3 528 525 524 
3 524 49 528 
3 547 545 544 
3 547 544 579 
3 541 526 577 
3 541 577 578 
3 550 547 557 
3 547 579 557 
3 527 541 525 
3 580 526 583 
3 527 583 526 
3 49 555 528 
3 555 566 528 
3 560 549 550 
3 529 562 550 
3 531 327 534 
3 536 328 327 
3 335 584 537 
3 532 533 529 
3 527 571 583 
3 571 537 583 
3 583 537 584 
3 564 565 530 
3 530 573 564 
3 565 533 534 
3 538 575 574 
3 538 574 530 
3 533 562 529 
3 565 535 530 
3 534 535 565 
3 534 533 531 
3 536 327 531 
3 533 532 536 
3 536 531 533 
3 530 535 538 
3 570 324 537 
3 575 538 570 
3 57 522 539 
3 539 525 541 
3 541 540 539 
3 527 526 541 
3 540 542 57 
3 540 57 539 
3 542 540 578 
3 578 540 541 
3 543 61 542 
3 61 57 542 
3 543 60 61 
3 578 544 542 
3 545 68 543 
3 68 60 543 
3 544 545 543 
3 543 542 544 
3 548 67 546 
3 67 548 84 
3 548 551 84 
3 547 549 548 
3 546 547 548 
3 546 545 547 
3 549 551 548 
3 549 552 551 
3 549 547 550 
3 553 87 551 
3 552 553 551 
3 554 48 553 
3 556 555 554 
3 553 556 554 
3 552 549 556 
3 556 553 552 
3 579 558 557 
3 557 558 529 
3 529 550 557 
3 558 579 580 
3 558 532 529 
3 580 582 558 
3 585 532 582 
3 532 558 582 
3 572 581 559 
3 559 581 556 
3 560 559 556 
3 556 549 560 
3 559 560 561 
3 560 562 561 
3 560 550 562 
3 572 559 564 
3 562 563 561 
3 563 559 561 
3 564 559 563 
3 533 563 562 
3 563 533 565 
3 564 563 565 
3 568 527 525 
3 568 528 566 
3 568 525 528 
3 581 572 566 
3 567 566 572 
3 568 566 567 
3 568 569 527 
3 568 567 569 
3 569 571 527 
3 571 569 575 
3 575 567 573 
3 575 570 571 
3 571 570 537 
3 572 564 573 
3 575 569 567 
3 567 572 573 
3 530 574 573 
3 575 573 574 
3 576 579 544 
3 544 578 576 
3 576 578 577 
3 577 579 576 
3 580 577 526 
3 579 577 580 
3 555 556 581 
3 581 566 555 
3 336 585 584 
3 585 336 328 
3 536 585 328 
3 585 582 584 
3 583 582 580 
3 584 582 583 
3 585 536 532 
3 586 112 589 
3 112 588 589 
3 587 118 590 
3 591 587 590 
3 112 113 588 
3 588 587 591 
3 591 592 588 
3 591 590 592 
3 589 588 595 
3 592 595 588 
3 605 608 604 
3 619 604 608 
3 620 593 621 
3 593 600 621 
3 634 608 624 
3 608 634 619 
3 598 595 592 
3 593 622 626 
3 593 626 594 
3 589 596 586 
3 596 617 613 
3 596 589 595 
3 595 617 596 
3 624 609 616 
3 590 597 592 
3 592 597 599 
3 599 600 592 
3 598 592 600 
3 600 593 598 
3 593 594 598 
3 117 601 599 
3 117 599 597 
3 599 601 621 
3 599 621 600 
3 601 122 602 
3 601 117 122 
3 121 602 122 
3 604 621 601 
3 128 603 605 
3 602 121 129 
3 129 605 602 
3 605 604 602 
3 601 602 604 
3 606 607 603 
3 607 606 146 
3 608 607 609 
3 607 608 603 
3 608 605 603 
3 609 624 608 
3 610 612 609 
3 609 607 610 
3 607 149 610 
3 149 611 610 
3 586 596 612 
3 586 612 611 
3 614 609 612 
3 612 610 611 
3 624 625 634 
3 625 633 634 
3 622 619 634 
3 614 613 638 
3 615 616 614 
3 614 638 615 
3 616 609 614 
3 615 637 616 
3 624 616 637 
3 598 594 595 
3 594 644 595 
3 613 617 645 
3 638 613 645 
3 619 618 604 
3 621 604 618 
3 620 621 618 
3 619 620 618 
3 593 620 622 
3 622 620 619 
3 612 596 613 
3 612 613 614 
3 623 628 362 
3 649 628 623 
3 369 363 632 
3 651 369 632 
3 624 637 629 
3 624 629 625 
3 627 640 639 
3 639 646 627 
3 362 629 640 
3 647 648 631 
3 627 647 631 
3 629 628 625 
3 628 629 362 
3 627 630 640 
3 640 630 362 
3 625 628 649 
3 632 626 651 
3 363 643 632 
3 626 632 642 
3 630 627 631 
3 643 631 648 
3 636 650 622 
3 636 622 634 
3 633 636 634 
3 635 650 636 
3 633 625 635 
3 625 649 635 
3 633 635 636 
3 637 639 629 
3 637 615 639 
3 638 639 615 
3 638 646 639 
3 629 639 640 
3 594 642 644 
3 594 626 642 
3 617 646 645 
3 641 617 595 
3 641 595 644 
3 641 646 617 
3 632 644 642 
3 648 641 644 
3 643 648 644 
3 632 643 644 
3 646 638 645 
3 646 641 648 
3 647 627 646 
3 646 648 647 
3 370 369 651 
3 649 370 651 
3 651 635 649 
3 651 650 635 
3 622 650 626 
3 650 651 626 
3 653 657 654 
3 666 657 652 
3 21 653 20 
3 653 652 657 
3 654 657 656 
3 659 658 674 
3 653 654 659 
3 680 674 668 
3 20 653 660 
3 660 22 20 
3 656 655 654 
3 658 659 654 
3 658 654 655 
3 662 656 657 
3 666 662 657 
3 22 660 670 
3 39 22 670 
3 670 671 39 
3 659 660 653 
3 674 658 668 
3 674 660 659 
3 660 674 672 
3 665 661 663 
3 663 24 664 
3 661 662 27 
3 661 665 662 
3 664 24 36 
3 675 665 663 
3 675 663 664 
3 669 665 675 
3 655 669 658 
3 655 665 669 
3 655 656 665 
3 656 662 665 
3 666 27 662 
3 664 36 677 
3 667 677 36 
3 664 677 676 
3 676 675 664 
3 658 669 668 
3 679 668 669 
3 679 669 675 
3 1 680 4 
3 671 670 673 
3 672 670 660 
3 673 670 672 
3 672 1 673 
3 674 680 1 
3 1 672 674 
3 680 676 4 
3 667 42 677 
3 680 679 675 
3 680 675 676 
3 42 678 677 
3 673 678 42 
3 42 671 673 
3 677 678 676 
3 678 673 1 
3 678 1 4 
3 680 668 679 
3 4 676 678 
3 685 683 681 
3 681 683 682 
3 684 686 685 
3 683 685 686 
